/* XPM */
static char * daysgone_q_xpm[] = {
"24 18 240 2",
"  	c #1E1F28",
". 	c #23242C",
"+ 	c #2F2F35",
"@ 	c #322F32",
"# 	c #3D3634",
"$ 	c #2F2F32",
"% 	c #515254",
"& 	c #636365",
"* 	c #28292F",
"= 	c #403D3E",
"- 	c #39322E",
"; 	c #3E3935",
"> 	c #534F4B",
", 	c #23242B",
"' 	c #1C1D25",
") 	c #232429",
"! 	c #25252A",
"~ 	c #515153",
"{ 	c #2A2B30",
"] 	c #35363A",
"^ 	c #323237",
"/ 	c #3B3B3F",
"( 	c #4C4C4D",
"_ 	c #37373A",
": 	c #1F2028",
"< 	c #74706B",
"[ 	c #69594F",
"} 	c #372E2A",
"| 	c #231E1C",
"1 	c #58514B",
"2 	c #25252B",
"3 	c #202028",
"4 	c #22232A",
"5 	c #202128",
"6 	c #1F2027",
"7 	c #1E1F24",
"8 	c #1B1B21",
"9 	c #2D2D2D",
"0 	c #121212",
"a 	c #353535",
"b 	c #212121",
"c 	c #232323",
"d 	c #2E2E2E",
"e 	c #5E5E5F",
"f 	c #333437",
"g 	c #212123",
"h 	c #484747",
"i 	c #847668",
"j 	c #959084",
"k 	c #8A867F",
"l 	c #878379",
"m 	c #2B2B31",
"n 	c #21222A",
"o 	c #282930",
"p 	c #393A3F",
"q 	c #28292D",
"r 	c #1E1F27",
"s 	c #1F2029",
"t 	c #313236",
"u 	c #1F1F20",
"v 	c #101010",
"w 	c #111111",
"x 	c #2B2B2C",
"y 	c #4A4A4C",
"z 	c #535253",
"A 	c #847D73",
"B 	c #837767",
"C 	c #A79379",
"D 	c #AA957E",
"E 	c #A89D8C",
"F 	c #7F7B74",
"G 	c #28282E",
"H 	c #39393E",
"I 	c #27272E",
"J 	c #515152",
"K 	c #7F6E5E",
"L 	c #5E5751",
"M 	c #544C47",
"N 	c #76716C",
"O 	c #82766C",
"P 	c #8F8174",
"Q 	c #706761",
"R 	c #8E8274",
"S 	c #343337",
"T 	c #24252C",
"U 	c #4A4A4D",
"V 	c #4D4D4D",
"W 	c #423932",
"X 	c #A7937E",
"Y 	c #292320",
"Z 	c #746F6A",
"` 	c #696764",
" .	c #857B70",
"..	c #928779",
"+.	c #3A3633",
"@.	c #786451",
"#.	c #5F5C5B",
"$.	c #202029",
"%.	c #1E1F25",
"&.	c #24252B",
"*.	c #212129",
"=.	c #232327",
"-.	c #4B4B4C",
";.	c #5B5B5B",
">.	c #121211",
",.	c #B0AA9C",
"'.	c #2D2A27",
").	c #403C3A",
"!.	c #827C74",
"~.	c #978B80",
"{.	c #6A6662",
"].	c #25211E",
"^.	c #A39F92",
"/.	c #202125",
"(.	c #343539",
"_.	c #5B5B5D",
":.	c #8E8E8E",
"<.	c #979797",
"[.	c #565656",
"}.	c #505050",
"|.	c #171717",
"1.	c #746D62",
"2.	c #B7AE9E",
"3.	c #3D3B39",
"4.	c #878481",
"5.	c #453B37",
"6.	c #664542",
"7.	c #736864",
"8.	c #1D1A17",
"9.	c #ACA28F",
"0.	c #474441",
"a.	c #1A1A1F",
"b.	c #333337",
"c.	c #202129",
"d.	c #25262D",
"e.	c #565657",
"f.	c #2C2C2D",
"g.	c #4B4B4B",
"h.	c #464646",
"i.	c #1C1C1C",
"j.	c #181818",
"k.	c #93887A",
"l.	c #8E867A",
"m.	c #69635E",
"n.	c #5A5048",
"o.	c #696563",
"p.	c #898885",
"q.	c #797571",
"r.	c #2F2B27",
"s.	c #6B6154",
"t.	c #353335",
"u.	c #26272D",
"v.	c #575758",
"w.	c #515151",
"x.	c #1F1F1F",
"y.	c #1A1A1A",
"z.	c #6A6866",
"A.	c #7E7872",
"B.	c #6C6965",
"C.	c #746D66",
"D.	c #878480",
"E.	c #92908B",
"F.	c #888581",
"G.	c #A9A6A1",
"H.	c #7E766B",
"I.	c #686057",
"J.	c #605B56",
"K.	c #27282F",
"L.	c #25252D",
"M.	c #22232B",
"N.	c #1E1E22",
"O.	c #333338",
"P.	c #2F2F34",
"Q.	c #514F4C",
"R.	c #5F5B55",
"S.	c #7A7670",
"T.	c #777470",
"U.	c #54514F",
"V.	c #6D6C68",
"W.	c #5F5D59",
"X.	c #534B45",
"Y.	c #7A756D",
"Z.	c #75736D",
"`.	c #6E6B6A",
" +	c #292A30",
".+	c #323338",
"++	c #38383D",
"@+	c #727273",
"#+	c #868686",
"$+	c #6E6560",
"%+	c #6A5546",
"&+	c #262625",
"*+	c #62605E",
"=+	c #666462",
"-+	c #151412",
";+	c #4F4B48",
">+	c #35312E",
",+	c #333130",
"'+	c #383534",
")+	c #524845",
"!+	c #22222B",
"~+	c #20212A",
"{+	c #35353A",
"]+	c #38393C",
"^+	c #232328",
"/+	c #665649",
"(+	c #473C38",
"_+	c #1D1E21",
":+	c #151516",
"<+	c #4B4A47",
"[+	c #43342E",
"}+	c #938E89",
"|+	c #65574D",
"1+	c #5D5956",
"2+	c #373435",
"3+	c #4C3F3B",
"4+	c #826E60",
"5+	c #B9B3A5",
"6+	c #26262C",
"7+	c #232325",
"8+	c #706A65",
"9+	c #5A595A",
"0+	c #83807B",
"a+	c #3B3B3E",
"b+	c #6A6762",
"c+	c #605851",
"d+	c #645751",
"e+	c #7E736B",
"f+	c #2E2E31",
"g+	c #3A3B3F",
"h+	c #403F42",
"i+	c #373639",
"j+	c #474545",
"k+	c #5B5754",
"l+	c #2C2C31",
"m+	c #6F6D6C",
"n+	c #292A31",
"o+	c #24242C",
"p+	c #434245",
"q+	c #605C5B",
"              . +           @ # $               ",
"                % & *     = - ; >               ",
"  , ' ) ! ~ { ] ^ / ( _ : < [ } | 1 2 3   4 5   ",
"  6 7 8 9 0 a b c d e f g h i j k l m n o p q r ",
"  s   t u v w v v w x y z A B C D E F G H I * : ",
"      o J w w w w w 0 v K L M N O P Q R S s     ",
"s T   T U V w v v v v W X Y Z `  ...+.@.#.$.    ",
"%.{ &.5 *.=.-.;.w v v >.,.'.).!.~.{.].^.0 /.    ",
":     . (._.:.<.[.}.|.1.2.3.4.5.6.7.8.9.0.a.b.c.",
"    . d.e.f.g.h.i.j.w k.l.m.n.o.p.q.r.s.t.      ",
"    s u.v.w w.x.y.c z.A.B.C.D.E.F.G.H.I.J.K.    ",
"L.$.  c.M.N., O.P.y Q.R.S.T.U.V.W.X.Y.Z.`.      ",
"      s  +n .+++@+#+$+%+&+*+=+-+;+>+,+'+)+      ",
"    s s !+  ~+{+]+^+/+(+_+:+<+[+}+|+1+2+3+      ",
"              c.  s 4+5+  6+7+8+9+0+a+b+c+      ",
"                    d+e+    ~+f+g+h+i+j+k+      ",
"                    l+m+n+  o+*       p+        ",
"                    ++q+                        "};
